<svg version="1.1" id="Layer_1" xmlns="http://www.w3.org/2000/svg" xmlns:xlink="http://www.w3.org/1999/xlink" x="0px" y="0px"
	 width="100%" viewBox="0 0 256 256" enable-background="new 0 0 256 256" xml:space="preserve">
<path fill="#283050" opacity="1.000000" stroke="none" 
	d="
M127.000000,257.000000 
	C85.018021,257.000000 43.036037,257.000000 1.027029,257.000000 
	C1.027029,171.721298 1.027029,86.442596 1.027029,1.081946 
	C86.242027,1.081946 171.484161,1.081946 256.863159,1.081946 
	C256.863159,86.333199 256.863159,171.666565 256.863159,257.000000 
	C215.234940,257.000000 173.586136,257.000000 131.378204,256.642700 
	C136.725021,242.699738 147.989685,235.435013 161.348862,230.968765 
	C176.392334,225.939484 189.900787,218.346466 202.084549,208.244034 
	C248.471298,169.781464 253.363754,99.281013 212.695038,54.835285 
	C181.808472,21.080198 133.665024,8.661482 90.639427,24.584932 
	C53.775410,38.228024 29.126806,64.339066 20.295361,102.880875 
	C6.902069,161.331314 41.685795,207.660446 86.119415,226.945175 
	C95.105087,230.845078 104.455658,234.107651 112.935295,238.905899 
	C119.750893,242.762512 125.297043,248.654373 127.000000,257.000000 
z"/>
<path fill="#F8F8F7" opacity="1.000000" stroke="none" 
	d="
M127.399994,257.000000 
	C125.297043,248.654373 119.750893,242.762512 112.935295,238.905899 
	C104.455658,234.107651 95.105087,230.845078 86.119415,226.945175 
	C41.685795,207.660446 6.902069,161.331314 20.295361,102.880875 
	C29.126806,64.339066 53.775410,38.228024 90.639427,24.584932 
	C133.665024,8.661482 181.808472,21.080198 212.695038,54.835285 
	C253.363754,99.281013 248.471298,169.781464 202.084549,208.244034 
	C189.900787,218.346466 176.392334,225.939484 161.348862,230.968765 
	C147.989685,235.435013 136.725021,242.699738 130.909546,256.642700 
	C129.933334,257.000000 128.866653,257.000000 127.399994,257.000000 
M58.536709,179.954025 
	C66.303215,188.558243 75.125778,195.776627 85.550926,200.998886 
	C141.970215,229.260895 209.488419,198.479080 222.367889,132.191833 
	C222.893356,129.487381 222.916260,126.495476 222.365753,123.802582 
	C218.798828,106.354050 211.300232,90.731316 199.836853,77.076706 
	C173.417816,45.607639 131.217361,34.950817 93.590073,50.779217 
	C68.149788,61.480999 51.813622,81.134697 40.812092,106.022827 
	C34.169529,121.049911 34.391914,135.525665 40.700802,150.441620 
	C45.148903,160.958160 50.590073,170.772675 58.536709,179.954025 
z"/>
<path fill="#2B3251" opacity="1.000000" stroke="none" 
	d="
M58.305729,179.685364 
	C50.590073,170.772675 45.148903,160.958160 40.700802,150.441620 
	C34.391914,135.525665 34.169529,121.049911 40.812092,106.022827 
	C51.813622,81.134697 68.149788,61.480999 93.590073,50.779217 
	C131.217361,34.950817 173.417816,45.607639 199.836853,77.076706 
	C211.300232,90.731316 218.798828,106.354050 222.365753,123.802582 
	C222.916260,126.495476 222.893356,129.487381 222.367889,132.191833 
	C209.488419,198.479080 141.970215,229.260895 85.550926,200.998886 
	C75.125778,195.776627 66.303215,188.558243 58.305729,179.685364 
M192.294891,161.789932 
	C199.516113,153.717529 205.530640,144.965454 208.708282,133.720032 
	C199.904907,133.720032 191.931183,133.607742 183.968796,133.857391 
	C182.934326,133.889816 181.568024,135.616013 181.022293,136.852066 
	C178.548431,142.455292 177.047211,148.621307 173.852158,153.747147 
	C165.113770,167.766068 152.210175,175.986023 135.556610,178.458038 
	C135.556610,182.662582 135.556610,186.730545 135.556610,190.789047 
	C152.128281,191.306335 176.893295,178.706772 192.294891,161.789932 
M179.759262,113.941483 
	C180.487534,116.974182 181.215805,120.006874 181.916367,122.924149 
	C191.040405,122.924149 199.888351,122.924149 208.837814,122.924149 
	C200.104523,90.868538 159.934082,63.777573 135.253891,65.335968 
	C135.253891,67.789856 135.425461,70.281067 135.209396,72.738182 
	C134.953445,75.648735 136.077698,76.643349 138.958054,77.263550 
	C159.151871,81.611588 172.675156,93.657104 179.759262,113.941483 
M62.576935,98.086037 
	C56.731312,105.571030 51.471554,113.371506 48.745819,123.018326 
	C58.151878,123.018326 67.039818,123.018326 75.808739,123.018326 
	C80.039124,100.415588 92.558441,85.340538 114.205841,78.297295 
	C122.805557,75.499268 122.888100,75.733315 122.638405,66.460274 
	C122.626068,66.001762 122.338364,65.550682 122.021889,64.648712 
	C97.608025,67.178871 78.648865,79.315414 62.576935,98.086037 
M66.161064,162.341812 
	C81.477859,178.539566 99.817009,188.756149 122.768723,191.548447 
	C122.768723,187.596222 123.014732,184.434952 122.642212,181.348328 
	C122.501999,180.186539 121.077866,178.460602 119.985703,178.238708 
	C96.741730,173.515900 82.463623,159.559021 76.531204,136.729477 
	C76.234932,135.589294 74.851410,133.906876 73.935356,133.881592 
	C65.826401,133.657730 57.708679,133.751556 49.531223,133.751556 
	C50.671093,141.540222 56.883488,152.175659 66.161064,162.341812 
M116.178345,139.256592 
	C123.011093,145.878326 129.122498,147.289673 135.867279,143.803482 
	C142.601852,140.322571 146.676880,132.693085 145.799545,125.207802 
	C144.940186,117.875816 139.537781,111.960915 132.284073,110.410164 
	C125.387459,108.935753 118.459007,111.949051 114.257530,118.250214 
	C110.322487,124.151787 110.851349,131.537460 116.178345,139.256592 
M135.423065,100.562401 
	C146.487061,104.073631 153.321777,111.552612 156.109482,122.941223 
	C160.970474,122.941223 165.722885,122.941223 170.479355,122.941223 
	C170.117493,103.415573 150.248322,87.013931 135.145477,87.346207 
	C135.145477,91.477577 135.145477,95.615524 135.423065,100.562401 
M113.972130,104.358040 
	C116.927376,102.950157 119.882622,101.542274 122.871559,100.118347 
	C122.871559,95.723900 122.871559,91.431107 122.871559,87.137375 
	C105.844505,87.354187 86.907326,106.355003 87.143440,122.940002 
	C91.920631,122.940002 96.698082,122.940002 101.537003,122.940002 
	C103.452477,115.403770 107.189476,109.281281 113.972130,104.358040 
M87.222054,137.033615 
	C92.861450,155.410309 107.285522,168.196350 122.927811,168.232986 
	C123.017937,166.315933 122.984520,164.356461 123.225998,162.431473 
	C123.773842,158.064301 122.931870,155.105392 118.088150,153.243896 
	C111.368782,150.661545 106.311478,145.624832 103.837479,138.703293 
	C102.409706,134.708817 100.112373,133.198303 96.035095,133.706787 
	C94.067917,133.952148 91.991386,133.496368 90.072868,133.888702 
	C88.967987,134.114655 88.079750,135.400040 87.222054,137.033615 
M163.138443,151.594696 
	C167.263321,146.642029 169.680649,140.971420 170.869690,133.523209 
	C166.227127,133.523209 162.113922,133.338547 158.037842,133.645996 
	C156.944931,133.728439 155.437561,135.113586 155.017517,136.236313 
	C151.856140,144.686584 146.122421,150.512146 137.898560,154.096725 
	C136.690918,154.623093 135.076553,155.892960 134.966660,156.955032 
	C134.598465,160.513062 134.826904,164.132828 134.826904,168.344528 
	C147.147003,166.845764 155.821075,161.064056 163.138443,151.594696 
z"/>
<path fill="#F5F5F5" opacity="1.000000" stroke="none" 
	d="
M192.057861,162.055038 
	C176.893295,178.706772 152.128281,191.306335 135.556610,190.789047 
	C135.556610,186.730545 135.556610,182.662582 135.556610,178.458038 
	C152.210175,175.986023 165.113770,167.766068 173.852158,153.747147 
	C177.047211,148.621307 178.548431,142.455292 181.022293,136.852066 
	C181.568024,135.616013 182.934326,133.889816 183.968796,133.857391 
	C191.931183,133.607742 199.904907,133.720032 208.708282,133.720032 
	C205.530640,144.965454 199.516113,153.717529 192.057861,162.055038 
z"/>
<path fill="#F5F5F5" opacity="1.000000" stroke="none" 
	d="
M179.638062,113.555359 
	C172.675156,93.657104 159.151871,81.611588 138.958054,77.263550 
	C136.077698,76.643349 134.953445,75.648735 135.209396,72.738182 
	C135.425461,70.281067 135.253891,67.789856 135.253891,65.335968 
	C159.934082,63.777573 200.104523,90.868538 208.837814,122.924149 
	C199.888351,122.924149 191.040405,122.924149 181.916367,122.924149 
	C181.215805,120.006874 180.487534,116.974182 179.638062,113.555359 
z"/>
<path fill="#F5F5F6" opacity="1.000000" stroke="none" 
	d="
M62.802605,97.811226 
	C78.648865,79.315414 97.608025,67.178871 122.021889,64.648712 
	C122.338364,65.550682 122.626068,66.001762 122.638405,66.460274 
	C122.888100,75.733315 122.805557,75.499268 114.205841,78.297295 
	C92.558441,85.340538 80.039124,100.415588 75.808739,123.018326 
	C67.039818,123.018326 58.151878,123.018326 48.745819,123.018326 
	C51.471554,113.371506 56.731312,105.571030 62.802605,97.811226 
z"/>
<path fill="#F6F6F6" opacity="1.000000" stroke="none" 
	d="
M65.928833,162.072601 
	C56.883488,152.175659 50.671093,141.540222 49.531223,133.751556 
	C57.708679,133.751556 65.826401,133.657730 73.935356,133.881592 
	C74.851410,133.906876 76.234932,135.589294 76.531204,136.729477 
	C82.463623,159.559021 96.741730,173.515900 119.985703,178.238708 
	C121.077866,178.460602 122.501999,180.186539 122.642212,181.348328 
	C123.014732,184.434952 122.768723,187.596222 122.768723,191.548447 
	C99.817009,188.756149 81.477859,178.539566 65.928833,162.072601 
z"/>
<path fill="#F7F7F6" opacity="1.000000" stroke="none" 
	d="
M115.949234,138.966064 
	C110.851349,131.537460 110.322487,124.151787 114.257530,118.250214 
	C118.459007,111.949051 125.387459,108.935753 132.284073,110.410164 
	C139.537781,111.960915 144.940186,117.875816 145.799545,125.207802 
	C146.676880,132.693085 142.601852,140.322571 135.867279,143.803482 
	C129.122498,147.289673 123.011093,145.878326 115.949234,138.966064 
z"/>
<path fill="#F4F5F4" opacity="1.000000" stroke="none" 
	d="
M135.284271,100.157944 
	C135.145477,95.615524 135.145477,91.477577 135.145477,87.346207 
	C150.248322,87.013931 170.117493,103.415573 170.479355,122.941223 
	C165.722885,122.941223 160.970474,122.941223 156.109482,122.941223 
	C153.321777,111.552612 146.487061,104.073631 135.284271,100.157944 
z"/>
<path fill="#F5F6F6" opacity="1.000000" stroke="none" 
	d="
M113.676720,104.574661 
	C107.189476,109.281281 103.452477,115.403770 101.537003,122.940002 
	C96.698082,122.940002 91.920631,122.940002 87.143440,122.940002 
	C86.907326,106.355003 105.844505,87.354187 122.871559,87.137375 
	C122.871559,91.431107 122.871559,95.723900 122.871559,100.118347 
	C119.882622,101.542274 116.927376,102.950157 113.676720,104.574661 
z"/>
<path fill="#5488BD" opacity="1.000000" stroke="none" 
	d="
M87.158020,136.621078 
	C88.079750,135.400040 88.967987,134.114655 90.072868,133.888702 
	C91.991386,133.496368 94.067917,133.952148 96.035095,133.706787 
	C100.112373,133.198303 102.409706,134.708817 103.837479,138.703293 
	C106.311478,145.624832 111.368782,150.661545 118.088150,153.243896 
	C122.931870,155.105392 123.773842,158.064301 123.225998,162.431473 
	C122.984520,164.356461 123.017937,166.315933 122.927811,168.232986 
	C107.285522,168.196350 92.861450,155.410309 87.158020,136.621078 
z"/>
<path fill="#5588BD" opacity="1.000000" stroke="none" 
	d="
M162.919647,151.878174 
	C155.821075,161.064056 147.147003,166.845764 134.826904,168.344528 
	C134.826904,164.132828 134.598465,160.513062 134.966660,156.955032 
	C135.076553,155.892960 136.690918,154.623093 137.898560,154.096725 
	C146.122421,150.512146 151.856140,144.686584 155.017517,136.236313 
	C155.437561,135.113586 156.944931,133.728439 158.037842,133.645996 
	C162.113922,133.338547 166.227127,133.523209 170.869690,133.523209 
	C169.680649,140.971420 167.263321,146.642029 162.919647,151.878174 
z"/>
</svg>